<?xml version="1.0" encoding="utf-8"?>
<!-- Generator: Adobe Illustrator 22.0.1, SVG Export Plug-In . SVG Version: 6.00 Build 0)  -->
<svg version="1.1" id="Calque_1" xmlns="http://www.w3.org/2000/svg" xmlns:xlink="http://www.w3.org/1999/xlink" x="0px" y="0px"
	 viewBox="0 0 216 15" style="enable-background:new 0 0 216 15;" xml:space="preserve">
<style type="text/css">
	.st0{fill:none;}
	.st1{fill:#5A5A5A;}
</style>
<g>
	<g>
		<rect class="st0" width="24" height="15"/>
	</g>
	<path class="st1" d="M22.9,7.1C20.4,2.7,16.3,0,12,0C7.7,0,3.6,2.7,1.1,7.1C1,7.4,1,7.6,1.1,7.9C3.6,12.3,7.7,15,12,15
		c4.3,0,8.4-2.7,10.9-7.1C23,7.6,23,7.4,22.9,7.1z M12,10.5c-1.7,0-3-1.3-3-3c0-1.7,1.3-3,3-3c1.7,0,3,1.3,3,3
		C15,9.2,13.7,10.5,12,10.5z"/>
</g>
<g>
	<g>
		<g>
			<rect x="24" class="st0" width="24" height="15"/>
		</g>
	</g>
	<path class="st1" d="M40.6,0C36.9,0,36,3.4,36,3.4c0,0-0.9-3.4-4.6-3.4c-3.1,0-3.9,2.8-3.9,4.5c0,2.2,1.5,4,3.6,6.2
		c2.3,2.5,4.3,4.3,4.9,4.3c0.7,0,2.6-1.8,4.9-4.3c2-2.2,3.6-4,3.6-6.2C44.5,2.8,43.7,0,40.6,0z"/>
</g>
<g>
	<path class="st1" d="M116.2,0L116.2,0L116.2,0l-12.1,1.3l-0.1,0c-0.4,0.1-0.7,0.4-0.7,0.8v5.5v2.3c-0.2,0-0.4,0-0.6,0
		c-0.2,0-0.4,0-0.6,0c-1.9,0.2-3.3,1.5-3.2,2.9c0.2,1.3,1.6,2.2,3.3,2.2c0.2,0,0.4,0,0.6,0c1.9-0.2,3.3-1.5,3.2-2.9l0,0V5.2l8.1-0.8
		v4.6c-0.2,0-0.4,0-0.6,0c-0.2,0-0.4,0-0.6,0c-1.9,0.2-3.3,1.5-3.2,2.9c0.2,1.3,1.6,2.2,3.3,2.2c0.2,0,0.4,0,0.6,0
		c1.8-0.2,3.1-1.3,3.2-2.6l0-1l0,0.9V6.3V0.8C117,0.4,116.7,0,116.2,0z"/>
	<g>
		<g>
			<rect x="96" class="st0" width="24" height="15"/>
		</g>
	</g>
</g>
<g>
	<g>
		<g>
			<g>
				<rect x="120" y="0" class="st0" width="24" height="15"/>
			</g>
		</g>
	</g>
	<g>
		<path class="st1" d="M132,1.5c3.3,0,6,2.7,6,6c0,3.3-2.7,6-6,6s-6-2.7-6-6C126,4.2,128.7,1.5,132,1.5 M132,0
			c-4.1,0-7.5,3.4-7.5,7.5c0,4.1,3.4,7.5,7.5,7.5c4.1,0,7.5-3.4,7.5-7.5C139.5,3.4,136.1,0,132,0L132,0z"/>
		<path class="st1" d="M132,4.6c-1.6,0-2.9,1.3-2.9,2.9c0,1.6,1.3,2.9,2.9,2.9c1.6,0,2.9-1.3,2.9-2.9C134.9,5.9,133.6,4.6,132,4.6
			L132,4.6z"/>
	</g>
</g>
<g>
	<path class="st1" d="M158.5,9.1c1.7-0.4,3.7-1,4.6-1.8c1.9-1.8,2.6-5.6,2.6-6.7c0-0.5-0.2-0.5-0.6-0.5h-18.1
		c-0.4,0-0.6,0.1-0.6,0.5c0,1.2,0.7,5,2.6,6.7c0.9,0.8,2.9,1.5,4.6,1.8c0.6,0.7,1.2,1.1,1.7,1.3c-0.2,0.4-0.4,0.8-0.7,1
		c-0.8,0.6-1.8,1-1.8,1V15h3.3h0h0h3.3v-2.7c0,0-1.1-0.4-1.8-1c-0.3-0.2-0.5-0.6-0.7-1C157.3,10.2,157.9,9.7,158.5,9.1z M159.9,6.8
		c0.5-1.4,0.7-3.8,0.8-5.3h3.1c-0.1,1-0.6,3.2-1.8,4.6c-0.4,0.5-1.2,0.9-2.4,1.3C159.7,7.2,159.8,7,159.9,6.8z M150,6.1
		c-1.2-1.4-1.7-3.6-1.8-4.6h3.1c0.1,1.6,0.2,3.9,0.8,5.3c0.1,0.2,0.2,0.4,0.3,0.6C151.2,7,150.4,6.6,150,6.1z"/>
	<g>
		<g>
			<g>
				<rect x="144" y="0" class="st0" width="24" height="15"/>
			</g>
		</g>
	</g>
</g>
<g>
	<g>
		<g>
			<g>
				<path class="st1" d="M172.3,2.2h9V0.5h-9c-0.5,0-0.9,0.4-0.9,0.9C171.5,1.8,171.9,2.2,172.3,2.2z"/>
				<path class="st1" d="M172.3,7.1l9,0V5.4h-9c-0.5,0-0.9,0.4-0.9,0.9C171.5,6.7,171.9,7.1,172.3,7.1z"/>
				<path class="st1" d="M172.2,10.3c-0.5,0-0.9,0.4-0.9,0.9c0,0.5,0.4,0.9,0.9,0.9h4.8c0.2-0.9,0.7-1.7,0.7-1.7H177H172.2z"/>
				<path class="st1" d="M188.1,0c-0.5,0.1-4,0.5-4,0.5c-0.3,0-0.5,0.2-0.5,0.5v3.7v5.5c-0.3,0-0.8,0-1.1,0c-0.2,0-0.3,0-0.5,0
					c-1.7,0.2-2.9,1.4-2.8,2.7c0.2,1.3,1.7,2.2,3.4,1.9c1.6-0.2,2.9-1.4,2.8-2.6c0,0,0,0,0,0l0,0V4.5c0,0,2.2-0.3,2.6-0.4
					c0.4-0.1,0.6-0.3,0.6-0.7c0-0.5,0-2.7,0-2.9C188.6,0.2,188.6,0,188.1,0z"/>
			</g>
		</g>
	</g>
	<g>
		<g>
			<rect x="168" y="0" class="st0" width="24" height="15"/>
		</g>
	</g>
</g>
<g>
	<g>
		<g>
			<rect x="192" y="0" class="st0" width="24" height="15"/>
		</g>
	</g>
	<path class="st1" d="M211.4,12.7l-3.6-3.6c1.3-2.3,1-5.3-0.9-7.3c-2.4-2.4-6.2-2.4-8.6,0c-2.4,2.4-2.4,6.2,0,8.6c2,2,5,2.3,7.3,0.9
		l3.6,3.6c0.1,0.1,0.4,0.1,0.5,0l1.7-1.7C211.5,13.1,211.5,12.9,211.4,12.7z M200.1,8.5c-1.4-1.4-1.4-3.6,0-4.9
		c1.4-1.4,3.6-1.4,4.9,0c1.4,1.4,1.4,3.6,0,4.9C203.7,9.9,201.4,9.9,200.1,8.5z"/>
</g>
<g>
	<g>
		<rect x="72" y="0" class="st0" width="24" height="15"/>
	</g>
	<path class="st1" d="M92.5,8C92.5,8,92.5,8,92.5,8c0-0.2,0-0.3,0-0.5C92.5,3.4,89.1,0,85,0c-2.9,0-5.4,1.7-6.7,4.1
		C78.1,4,77.8,4,77.5,4c-3,0-5.5,2.5-5.5,5.5c0,3,2.5,5.5,5.5,5.5h15c1.9,0,3.5-1.6,3.5-3.5C96,9.6,94.4,8,92.5,8z M88.3,8.8
		L86,11.1l0,0L85,12.2c-0.1,0.1-0.3,0.2-0.5,0.2s-0.3-0.1-0.5-0.2L83,11.1l0,0l-2.3-2.3c-0.1-0.1-0.2-0.3-0.2-0.5
		c0-0.2,0.1-0.3,0.2-0.5c0.3-0.3,0.7-0.3,0.9,0l2.3,2.3v-6c0-0.4,0.3-0.6,0.6-0.6s0.6,0.3,0.6,0.6v6L87,8.4l0.4-0.4
		c0.3-0.3,0.7-0.3,0.9,0c0.1,0.1,0.2,0.3,0.2,0.5C88.5,8.6,88.5,8.7,88.3,8.8z"/>
</g>
<g>
	<g>
		<rect x="48" class="st0" width="24" height="15"/>
	</g>
	<path class="st1" d="M68.5,8C68.5,8,68.5,8,68.5,8c0-0.2,0-0.3,0-0.5C68.5,3.4,65.1,0,61,0c-2.9,0-5.4,1.7-6.7,4.1
		C54.1,4,53.8,4,53.5,4c-3,0-5.5,2.5-5.5,5.5c0,3,2.5,5.5,5.5,5.5h15c1.9,0,3.5-1.6,3.5-3.5C72,9.6,70.4,8,68.5,8z M63.5,10.6
		c0.3,0.3,0.3,0.7,0,0.9c-0.1,0.1-0.3,0.2-0.5,0.2c-0.2,0-0.3-0.1-0.5-0.2l-2.1-2.1l-2.1,2.1c-0.1,0.1-0.3,0.2-0.5,0.2
		c-0.2,0-0.3-0.1-0.5-0.2c-0.3-0.3-0.3-0.7,0-0.9l2.1-2.1l-2.1-2.1c-0.3-0.3-0.3-0.7,0-0.9c0.3-0.3,0.7-0.3,0.9,0l2.1,2.1l2.1-2.1
		c0.3-0.3,0.7-0.3,0.9,0c0.3,0.3,0.3,0.7,0,0.9l-2.1,2.1L63.5,10.6z"/>
</g>
</svg>
